<?xml version="1.0" standalone="no"?>
<!DOCTYPE svg PUBLIC "-//W3C//DTD SVG 20010904//EN"
 "http://www.w3.org/TR/2001/REC-SVG-20010904/DTD/svg10.dtd">
<svg version="1.0" xmlns="http://www.w3.org/2000/svg"
 width="90.000000pt" height="90.000000pt" viewBox="0 0 90.000000 90.000000"
 preserveAspectRatio="xMidYMid meet">

<g transform="translate(0.000000,90.000000) scale(0.100000,-0.100000)"
fill="#ffffff" stroke="none">
<path d="M560 710 c0 -59 0 -60 29 -60 15 0 43 -10 62 -23 66 -44 70 -139 8
-191 -30 -26 -32 -26 -207 -26 l-176 0 74 75 74 75 -78 0 -79 0 -51 -47 c-28
-26 -79 -73 -113 -106 l-63 -58 108 -104 107 -104 85 0 85 0 -72 69 c-40 39
-73 72 -73 75 0 3 80 5 178 5 165 0 181 2 227 24 89 41 135 114 135 214 0 110
-69 201 -175 231 -80 22 -85 19 -85 -49z"/>
</g>
</svg>
