<?xml version="1.0" standalone="no"?>
<!DOCTYPE svg PUBLIC "-//W3C//DTD SVG 20010904//EN"
 "http://www.w3.org/TR/2001/REC-SVG-20010904/DTD/svg10.dtd">
<svg version="1.0" xmlns="http://www.w3.org/2000/svg"
 width="90.000000pt" height="90.000000pt" viewBox="0 0 90.000000 90.000000"
 preserveAspectRatio="xMidYMid meet">

<g transform="translate(0.000000,90.000000) scale(0.100000,-0.100000)"
fill="#000000" stroke="#none">
<path d="M0 450 l0 -450 450 0 450 0 0 450 0 450 -450 0 -450 0 0 -450z m645
309 c106 -30 175 -121 175 -231 0 -100 -46 -173 -135 -214 -46 -22 -62 -24
-227 -24 -98 0 -178 -2 -178 -5 0 -3 33 -36 73 -75 l72 -69 -85 0 -85 0 -107
104 -108 104 63 58 c34 33 85 80 113 106 l51 47 79 0 78 0 -74 -75 -74 -75
176 0 c175 0 177 0 207 26 62 52 58 147 -8 191 -19 13 -47 23 -62 23 -29 0
-29 1 -29 60 0 68 5 71 85 49z"/>
</g>
</svg>
