<?xml version="1.0" encoding="UTF-8"?>
<svg version="1.1" xmlns="http://www.w3.org/2000/svg" width="100" height="100">
<path d="M0 0 C8.03745764 7.3500435 12.28583174 17.13338087 13.24609375 27.8359375 C13.73152378 40.1658603 9.12118352 51.13982427 0.84375 60.19140625 C-7.87240029 68.33032804 -18.58827604 71.99747135 -30.3671875 71.6875 C-41.56608015 70.62814529 -51.67687783 65.72428 -59.37109375 57.484375 C-66.82873204 47.94807958 -70.10606207 37.46441953 -68.96875 25.44140625 C-67.09257897 14.43663837 -61.84913146 4.38610226 -52.96875 -2.55859375 C-35.51115622 -14.02921303 -16.434094 -13.01032441 0 0 Z M-43.96875 4.44140625 C-45.96449198 5.39955486 -45.96449198 5.39955486 -48.03125 6.81640625 C-48.74410156 7.27789063 -49.45695312 7.739375 -50.19140625 8.21484375 C-51.90824329 9.32078337 -51.90824329 9.32078337 -52.96875 10.44140625 C-53.12929694 25.75758442 -45.43758176 39.3366032 -35.27734375 50.2890625 C-30.98728542 54.28876156 -26.32052142 58.00099848 -20.96875 60.44140625 C-16.82501822 60.25328591 -15.32753589 59.72385472 -12.03125 57.12890625 C-9.75156186 54.75425557 -9.75156186 54.75425557 -10.05078125 52.54296875 C-12.06416709 47.93360032 -16.73847529 44.9216566 -20.96875 42.44140625 C-22.165 42.62703125 -23.36125 42.81265625 -24.59375 43.00390625 C-25.7075 43.14828125 -26.82125 43.29265625 -27.96875 43.44140625 C-33.50329213 39.08910091 -37.56370885 33.0006094 -39.96875 26.44140625 C-39.28125 23.69140625 -39.28125 23.69140625 -37.96875 21.44140625 C-36.78938416 18.59444247 -36.95997439 17.46965853 -37.89453125 14.4609375 C-38.35214844 13.40261719 -38.80976562 12.34429687 -39.28125 11.25390625 C-39.73113281 10.18785156 -40.18101563 9.12179688 -40.64453125 8.0234375 C-41.70624462 5.32608345 -41.70624462 5.32608345 -43.96875 4.44140625 Z M-18.96875 9.44140625 C-17.855 10.52421875 -17.855 10.52421875 -16.71875 11.62890625 C-11.30174988 17.16902 -8.60713813 22.21390686 -5.96875 29.44140625 C-5.63875 29.44140625 -5.30875 29.44140625 -4.96875 29.44140625 C-5.21938258 22.42369391 -7.23320625 18.58675667 -11.96875 13.44140625 C-15.02636962 10.35811655 -15.02636962 10.35811655 -18.96875 9.44140625 Z M-23.96875 18.44140625 C-24.29875 19.10140625 -24.62875 19.76140625 -24.96875 20.44140625 C-24.205625 20.95703125 -23.4425 21.47265625 -22.65625 22.00390625 C-19.35299393 24.99988269 -18.48249274 27.29853139 -16.96875 31.44140625 C-16.17518199 29.69469037 -16.17518199 29.69469037 -15.96875 27.44140625 C-17.81353066 23.34189366 -20.37355088 21.06492993 -23.96875 18.44140625 Z " fill="#ffffff" transform="translate(77.96875,19.55859375)"/>
</svg>
