<?xml version="1.0" encoding="UTF-8"?>
<svg version="1.1" xmlns="http://www.w3.org/2000/svg" width="100" height="100">
<path d="M0 0 C10.6163694 8.01331728 18.61855188 17.5873667 21.75 30.75 C22.20124316 34.67591956 22.27469711 38.55065118 22.25 42.5 C22.24427979 43.55968994 22.23855957 44.61937988 22.23266602 45.71118164 C21.94649753 58.27465276 18.26967264 67.3838804 9.75 76.75 C8.93208984 77.68779297 8.93208984 77.68779297 8.09765625 78.64453125 C0.2160472 87.15666903 -10.29880176 92.61388972 -21.921875 93.21875 C-23.94765486 93.25294526 -25.97397117 93.2626697 -28 93.25 C-29.05968994 93.24427979 -30.11937988 93.23855957 -31.21118164 93.23266602 C-43.78321037 92.9463026 -52.87155694 89.26245716 -62.25 80.75 C-62.87519531 80.21632813 -63.50039063 79.68265625 -64.14453125 79.1328125 C-72.54906161 71.47901361 -78.12640371 59.80911081 -78.68359375 48.4453125 C-78.70699103 46.58868863 -78.70775799 44.73166078 -78.6875 42.875 C-78.67992676 41.90336914 -78.67235352 40.93173828 -78.66455078 39.93066406 C-78.50229296 32.878963 -77.66410129 27.01625423 -74.25 20.75 C-73.59644531 19.46802734 -73.59644531 19.46802734 -72.9296875 18.16015625 C-67.52811817 8.34582945 -60.17419484 1.80939345 -50.25 -3.25 C-49.48816406 -3.66507812 -48.72632812 -4.08015625 -47.94140625 -4.5078125 C-33.21854337 -11.24499455 -13.20019701 -8.68747906 0 0 Z " fill="#000000" transform="translate(78.25,7.25)"/>
<path d="M0 0 C0 9.57 0 19.14 0 29 C-17.49 29 -34.98 29 -53 29 C-53 20.09 -53 11.18 -53 2 C-49.07824145 3.96087927 -47.05877133 5.70880463 -44.015625 8.7890625 C-43.55516785 9.25234955 -43.09471069 9.7156366 -42.62030029 10.19296265 C-41.15874922 11.66565898 -39.70432832 13.14517403 -38.25 14.625 C-37.25697389 15.62806322 -36.26348911 16.63067257 -35.26953125 17.6328125 C-32.84102059 20.08330835 -30.41885325 22.5399667 -28 25 C-24.09405504 23.41881753 -21.49841879 20.73959252 -18.61328125 17.7734375 C-17.8595649 17.01191879 -17.8595649 17.01191879 -17.09062195 16.23501587 C-15.49306947 14.61970677 -13.9023957 12.99784316 -12.3125 11.375 C-10.71101201 9.7459291 -9.10809584 8.11832953 -7.50224304 6.49356079 C-6.50454156 5.48356137 -5.50952476 4.47090184 -4.51741028 3.45541382 C-1.11170113 0 -1.11170113 0 0 0 Z " fill="#F8F8F8" transform="translate(77,36)"/>
<path d="M0 0 C16.17 0 32.34 0 49 0 C45.51466895 4.06621956 42.23815147 7.88676267 38.4765625 11.62109375 C37.68378906 12.41064453 36.89101563 13.20019531 36.07421875 14.01367188 C34.86185547 15.2134668 34.86185547 15.2134668 33.625 16.4375 C32.79355469 17.26443359 31.96210937 18.09136719 31.10546875 18.94335938 C29.0725896 20.96455531 27.03740037 22.98336335 25 25 C21.26193389 23.43904931 18.86757459 21.12570854 16.015625 18.28125 C14.61376953 16.88326172 14.61376953 16.88326172 13.18359375 15.45703125 C12.7026123 14.97186035 12.22163086 14.48668945 11.72607422 13.98681641 C10.24795152 12.49793661 8.75940089 11.02008349 7.26953125 9.54296875 C6.34011719 8.61097656 5.41070312 7.67898437 4.453125 6.71875 C3.59879883 5.86216797 2.74447266 5.00558594 1.86425781 4.12304688 C0 2 0 2 0 0 Z " fill="#F8F8F8" transform="translate(26,35)"/>
<path d="M0 0 C16.83 0 33.66 0 51 0 C51 0.33 51 0.66 51 1 C34.83 1 18.66 1 2 1 C7.46547348 7.29610619 7.46547348 7.29610619 13.18359375 13.28125 C13.88291016 13.97734375 14.58222656 14.6734375 15.30273438 15.390625 C16.00720703 16.08671875 16.71167969 16.7828125 17.4375 17.5 C18.16904297 18.22703125 18.90058594 18.9540625 19.65429688 19.703125 C21.43389824 21.47109499 23.21580918 23.23666378 25 25 C24.67 25.66 24.34 26.32 24 27 C23.34402832 26.3387915 22.68805664 25.67758301 22.01220703 24.99633789 C19.58028964 22.54739147 17.14614635 20.10070247 14.71044922 17.65551758 C13.6561597 16.59619526 12.60276891 15.53597771 11.55029297 14.47485352 C10.03848143 12.95093039 8.52348098 11.43024216 7.0078125 9.91015625 C6.09660645 8.99371338 5.18540039 8.07727051 4.24658203 7.13305664 C2.19154633 4.97429864 2.19154633 4.97429864 0 4 C0 12.91 0 21.82 0 31 C17.49 31 34.98 31 53 31 C53 31.33 53 31.66 53 32 C35.18 32 17.36 32 -1 32 C-1.020625 27.09125 -1.04125 22.1825 -1.0625 17.125 C-1.071604 15.57699707 -1.08070801 14.02899414 -1.09008789 12.43408203 C-1.09258545 11.22091309 -1.09508301 10.00774414 -1.09765625 8.7578125 C-1.10289307 7.5114502 -1.10812988 6.26508789 -1.11352539 4.98095703 C-1 2 -1 2 0 0 Z " fill="#636363" transform="translate(24,34)"/>
</svg>
